PathFileType	4	(X/Y/Z)	/Users/rkoike/Documents/python/sports2d/webcam_20251024_144952/webcam_20251024_144952_px_person00.trc
DataRate	CameraRate	NumFrames	NumMarkers	Units	OrigDataRate	OrigDataStartFrame	OrigNumFrames
30	30	5	22	m	30	601	962
Frame#	Time	Hip			RHip			RKnee			RAnkle			RBigToe			RSmallToe			RHeel			LHip			LKnee			LAnkle			LBigToe			LSmallToe			LHeel			Neck			Head			Nose			RShoulder			RElbow			RWrist			LShoulder			LElbow			LWrist			
		X1	Y1	Z1	X2	Y2	Z2	X3	Y3	Z3	X4	Y4	Z4	X5	Y5	Z5	X6	Y6	Z6	X7	Y7	Z7	X8	Y8	Z8	X9	Y9	Z9	X10	Y10	Z10	X11	Y11	Z11	X12	Y12	Z12	X13	Y13	Z13	X14	Y14	Z14	X15	Y15	Z15	X16	Y16	Z16	X17	Y17	Z17	X18	Y18	Z18	X19	Y19	Z19	X20	Y20	Z20	X21	Y21	Z21	X22	Y22	Z22
601	20.05417967395075	261.72608942590125	711.4069003035917	0.0	182.73096618210622	709.9965711843347	0.0	130.1849128251167	724.3778822818937	0.0	181.40581050550895	715.0871150593762	0.0			0.0			0.0			0.0	337.5089248395835	706.5600913983352	0.0	379.60901826661484	721.3112502899679	0.0	467.15161081302466	686.0281969459635	0.0	513.93505859375	710.3623046875	0.0	734.624348958397	698.3541603085717	0.0			0.0	247.59512987353904	399.1349303785425	0.0	286.0064647980053	239.53394587599195	0.0	333.165379200734	345.40489773112483	0.0	109.18618043036673	459.2819794411911	0.0	55.16375296301652	652.503223364986	0.0	95.11040739273267	718.3633080129865	0.0	369.3087211865542	442.6277240158672	0.0	413.3887976108336	606.3748189887657	0.0	404.23013987722334	720.443262408987	0.0
602	20.087547693374958	260.3790885184902	708.8409417528524	0.0	183.46240806503806	708.0811834558554	0.0	140.11774036857145	720.6123975039031	0.0	181.40581050550895	715.0871150593762	0.0			0.0			0.0			0.0	333.5763240245308	705.0940673418139	0.0	394.689934828639	718.1505357429083	0.0	466.67892834349124	686.8313309640013	0.0	513.93505859375	710.3623046875	0.0	734.6243489583387	698.3541603088162	0.0			0.0	247.14829035219134	398.2880172420173	0.0	290.3720520849943	240.9760940780382	0.0	332.25011466829966	347.2615023047206	0.0	108.80469903678575	459.31164383679595	0.0	56.29102975021226	655.4480058569808	0.0	99.59678183730074	720.5150932807273	0.0	366.5043110779785	443.09434567798786	0.0	411.34973914531884	604.1442159816479	0.0	404.10111841411674	721.568077398839	0.0
603	20.12091571279917	264.42127381234764	707.9067389005256	0.0	188.65689512193765	708.1822555252373	0.0	149.1952138273087	717.0902872206389	0.0	181.40581050550895	715.0871150593762	0.0			0.0			0.0			0.0	335.25057718022947	705.62966047506	0.0	408.61168361708866	715.1628349939763	0.0	466.6778842433834	686.8331049928026	0.0	513.93505859375	710.3623046875	0.0	734.6243489583229	698.3541603088821	0.0			0.0	247.39410726189493	398.70599890058014	0.0	291.10993093043214	240.21285293482367	0.0	326.9591188472772	347.0109557885452	0.0	109.81815748951537	459.4318616573097	0.0	57.62709228778193	658.4805509126645	0.0	105.4999906516375	719.8207825966151	0.0	366.0226371366373	443.3991210741205	0.0	410.82214177337164	602.0072768836238	0.0	405.30476577487946	719.700858153117	0.0
604	20.15428373222338	271.0155403852442	707.3349926787978	0.0	193.30440253384197	707.7811627954248	0.0	157.5988340012776	713.604833387909	0.0	181.40581050550895	715.0871150593762	0.0			0.0			0.0			0.0	341.8547857493237	705.2010939729067	0.0	421.99163562558897	712.1683077236036	0.0	466.7700570744405	686.6764942849127	0.0	513.93505859375	710.3623046875	0.0	734.6243489583286	698.3541603088586	0.0			0.0	248.01098709523265	400.10153108303166	0.0	287.45315669859775	239.00616113749786	0.0	318.4157192856608	343.961998824254	0.0	112.80600270183872	459.9727404357812	0.0	59.159326945663096	658.5650603785666	0.0	107.3579006403884	715.9633757867903	0.0	367.42212773481185	443.2248280572685	0.0	412.6070287380149	600.7584875427482	0.0	407.54959125343447	716.7729927909079	0.0
605	20.187651751647593	273.37889015157174	707.916296753747	0.0	194.03714578168308	707.945217962967	0.0	165.91563140945152	709.9214362133882	0.0	181.40581050550895	715.0871150593762	0.0			0.0			0.0			0.0	344.72763549965447	704.7320497415033	0.0	435.75939807149484	708.9842394068752	0.0	466.8043219101707	686.618274958047	0.0	513.93505859375	710.3623046875	0.0	734.6243489583338	698.354160308837	0.0			0.0	249.98880661781618	400.8698150864412	0.0	282.9979864229022	237.46141823087717	0.0	307.69026851119753	338.1191512983459	0.0	115.80858255794382	460.3379560516193	0.0	62.20317155798753	655.7584879556423	0.0	105.31116313524159	713.6587517996163	0.0	370.15152343613914	442.1812111732927	0.0	415.71851929860105	598.2748717650703	0.0	410.2135803345126	715.3248579380387	0.0
